<?xml version="1.0" encoding="UTF-8" standalone="no"?>
<!-- Generator: Adobe Illustrator 16.0.0, SVG Export Plug-In . SVG Version: 6.00 Build 0)  -->

<svg
   xmlns:dc="http://purl.org/dc/elements/1.1/"
   xmlns:cc="http://creativecommons.org/ns#"
   xmlns:rdf="http://www.w3.org/1999/02/22-rdf-syntax-ns#"
   xmlns:svg="http://www.w3.org/2000/svg"
   xmlns="http://www.w3.org/2000/svg"
   xmlns:sodipodi="http://sodipodi.sourceforge.net/DTD/sodipodi-0.dtd"
   xmlns:inkscape="http://www.inkscape.org/namespaces/inkscape"
   version="1.1"
   id="Capa_1"
   x="0px"
   y="0px"
   width="287.386px"
   height="287.386px"
   viewBox="0 0 287.386 287.386"
   style="enable-background:new 0 0 287.386 287.386;"
   xml:space="preserve"
   sodipodi:docname="not_noisy.svg"
   inkscape:version="0.92.2 (5c3e80d, 2017-08-06)"><metadata
     id="metadata47"><rdf:RDF><cc:Work
         rdf:about=""><dc:format>image/svg+xml</dc:format><dc:type
           rdf:resource="http://purl.org/dc/dcmitype/StillImage" /></cc:Work></rdf:RDF></metadata><defs
     id="defs45" /><sodipodi:namedview
     pagecolor="#ffffff"
     bordercolor="#666666"
     borderopacity="1"
     objecttolerance="10"
     gridtolerance="10"
     guidetolerance="10"
     inkscape:pageopacity="0"
     inkscape:pageshadow="2"
     inkscape:window-width="1920"
     inkscape:window-height="1023"
     id="namedview43"
     showgrid="false"
     inkscape:zoom="1.6423904"
     inkscape:cx="123.29483"
     inkscape:cy="48.96105"
     inkscape:window-x="0"
     inkscape:window-y="28"
     inkscape:window-maximized="1"
     inkscape:current-layer="Capa_1" /><path
     d="m 67.227866,154.78637 v 92.96727 c 0,5.54195 4.478336,10.01746 10.017455,10.01746 5.529672,0 10.017454,-4.47551 10.017454,-10.01746 v -92.96727 c 0,-5.53156 -4.487782,-10.01745 -10.017454,-10.01745 -5.539119,0 -10.017455,4.48117 -10.017455,10.01745 z"
     id="path2"
     inkscape:connector-curvature="0"
     style="stroke-width:0.9445973" /><path
     d="m 143.67675,29.502243 c -19.14478,0 -37.21178,4.706877 -53.129904,13.021422 l 22.775504,22.633437 c 9.43909,-3.616422 19.66876,-5.603012 30.35072,-5.603012 47.23176,0 85.66685,38.735973 85.66685,86.35501 0,0.72829 0.10724,1.43453 0.21586,2.13826 v 32.61998 l 49.84412,49.53232 c 0.0132,-0.36413 0.0258,-0.72841 0.0258,-1.09588 v -57.55956 c 0,-13.10912 -8.48982,-24.1543 -20.08192,-27.62947 C 258.27735,80.654121 206.81553,29.502243 143.67675,29.502243 Z M 67.204959,58.633476 C 43.625283,79.575593 28.562984,110.0117 27.996791,143.93873 16.42075,147.41863 7.9609956,158.45471 7.9609956,171.55345 v 57.55033 c 0,15.88718 12.4555344,28.7807 27.8231884,28.7807 H 57.842008 V 147.50865 c 0.06045,-0.52898 0.156817,-1.05735 0.156817,-1.59955 0,-26.47734 11.887553,-50.204284 30.5592,-66.057237 z M 229.55578,219.97329 v 37.91119 h 22.05967 c 4.62587,0 8.98544,-1.17603 12.82401,-3.24522 z"
     id="path4"
     inkscape:connector-curvature="0"
     style="stroke-width:0.9445973" /><path
     d="m 210.16017,144.76894 c -4.52549,0 -8.3376,2.98855 -9.58434,7.09925 l 19.6004,19.47678 v -16.55813 c 0,-5.53156 -4.4845,-10.0179 -10.01606,-10.0179 z m -10.0179,45.97348 v 57.01162 c 0,5.54195 4.48634,10.0179 10.0179,10.0179 5.53156,0 10.01606,-4.47595 10.01606,-10.0179 v -37.10312 z"
     id="path6"
     inkscape:connector-curvature="0"
     style="stroke-width:0.9445973" /><g
     id="g12" /><g
     id="g14" /><g
     id="g16" /><g
     id="g18" /><g
     id="g20" /><g
     id="g22" /><g
     id="g24" /><g
     id="g26" /><g
     id="g28" /><g
     id="g30" /><g
     id="g32" /><g
     id="g34" /><g
     id="g36" /><g
     id="g38" /><g
     id="g40" /><rect
     id="rect53"
     width="365.81229"
     height="29.585508"
     x="20.652649"
     y="-14.118918"
     transform="matrix(0.71091297,0.70327999,-0.60958444,0.79272114,0,0)"
     style="fill:#000000;stroke-width:0.92651945" /></svg>