<?xml version="1.0" encoding="UTF-8" standalone="no"?>
<!-- Generator: Adobe Illustrator 16.0.0, SVG Export Plug-In . SVG Version: 6.00 Build 0)  -->

<svg
   xmlns:dc="http://purl.org/dc/elements/1.1/"
   xmlns:cc="http://creativecommons.org/ns#"
   xmlns:rdf="http://www.w3.org/1999/02/22-rdf-syntax-ns#"
   xmlns:svg="http://www.w3.org/2000/svg"
   xmlns="http://www.w3.org/2000/svg"
   xmlns:sodipodi="http://sodipodi.sourceforge.net/DTD/sodipodi-0.dtd"
   xmlns:inkscape="http://www.inkscape.org/namespaces/inkscape"
   version="1.1"
   id="Capa_1"
   x="0px"
   y="0px"
   width="287.386px"
   height="287.386px"
   viewBox="0 0 287.386 287.386"
   style="enable-background:new 0 0 287.386 287.386;"
   xml:space="preserve"
   sodipodi:docname="noisy.svg"
   inkscape:version="0.92.2 (5c3e80d, 2017-08-06)"><metadata
     id="metadata47"><rdf:RDF><cc:Work
         rdf:about=""><dc:format>image/svg+xml</dc:format><dc:type
           rdf:resource="http://purl.org/dc/dcmitype/StillImage" /></cc:Work></rdf:RDF></metadata><defs
     id="defs45" /><sodipodi:namedview
     pagecolor="#ffffff"
     bordercolor="#666666"
     borderopacity="1"
     objecttolerance="10"
     gridtolerance="10"
     guidetolerance="10"
     inkscape:pageopacity="0"
     inkscape:pageshadow="2"
     inkscape:window-width="640"
     inkscape:window-height="480"
     id="namedview43"
     showgrid="false"
     inkscape:zoom="0.82119523"
     inkscape:cx="143.69299"
     inkscape:cy="143.69299"
     inkscape:window-x="0"
     inkscape:window-y="28"
     inkscape:window-maximized="0"
     inkscape:current-layer="Capa_1" /><g
     id="g10"
     style="fill:#666666"><g
       id="g8"
       style="fill:#666666"><path
         d="M62.743,155.437v98.42c0,5.867,4.741,10.605,10.605,10.605c5.854,0,10.605-4.738,10.605-10.605v-98.42    c0-5.856-4.751-10.605-10.605-10.605C67.484,144.832,62.743,149.576,62.743,155.437z"
         id="path2"
         style="fill:#666666" /><path
         d="M29.456,264.582h23.351v-116.85c0.064-0.56,0.166-1.119,0.166-1.693c0-50.412,40.69-91.42,90.698-91.42    c50.002,0,90.692,41.008,90.692,91.42c0,0.771,0.113,1.518,0.228,2.263v116.28h23.354c16.254,0,29.442-13.64,29.442-30.469    v-60.936c0-13.878-8.989-25.57-21.261-29.249c-1.129-66.971-55.608-121.124-122.45-121.124    c-66.86,0-121.347,54.158-122.465,121.15C8.956,147.638,0,159.32,0,173.187v60.926C0,250.932,13.187,264.582,29.456,264.582z"
         id="path4"
         style="fill:#666666" /><path
         d="M203.454,155.437v98.42c0,5.867,4.748,10.605,10.604,10.605s10.604-4.738,10.604-10.605v-98.42    c0-5.856-4.748-10.605-10.604-10.605C208.191,144.832,203.454,149.576,203.454,155.437z"
         id="path6"
         style="fill:#666666" /></g></g><g
     id="g12"
     style="fill:#666666" /><g
     id="g14"
     style="fill:#666666" /><g
     id="g16"
     style="fill:#666666" /><g
     id="g18"
     style="fill:#666666" /><g
     id="g20"
     style="fill:#666666" /><g
     id="g22"
     style="fill:#666666" /><g
     id="g24"
     style="fill:#666666" /><g
     id="g26"
     style="fill:#666666" /><g
     id="g28"
     style="fill:#666666" /><g
     id="g30"
     style="fill:#666666" /><g
     id="g32"
     style="fill:#666666" /><g
     id="g34"
     style="fill:#666666" /><g
     id="g36"
     style="fill:#666666" /><g
     id="g38"
     style="fill:#666666" /><g
     id="g40"
     style="fill:#666666" /></svg>