<?xml version="1.0" encoding="UTF-8" standalone="no"?>
<!-- Generator: Adobe Illustrator 19.0.0, SVG Export Plug-In . SVG Version: 6.00 Build 0)  -->

<svg
   xmlns:dc="http://purl.org/dc/elements/1.1/"
   xmlns:cc="http://creativecommons.org/ns#"
   xmlns:rdf="http://www.w3.org/1999/02/22-rdf-syntax-ns#"
   xmlns:svg="http://www.w3.org/2000/svg"
   xmlns="http://www.w3.org/2000/svg"
   xmlns:sodipodi="http://sodipodi.sourceforge.net/DTD/sodipodi-0.dtd"
   xmlns:inkscape="http://www.inkscape.org/namespaces/inkscape"
   version="1.1"
   id="Capa_1"
   x="0px"
   y="0px"
   viewBox="0 0 512 512"
   style="enable-background:new 0 0 512 512;"
   xml:space="preserve"
   sodipodi:docname="not_noisy.svg"
   inkscape:version="0.92.2 (5c3e80d, 2017-08-06)"><metadata
     id="metadata97"><rdf:RDF><cc:Work
         rdf:about=""><dc:format>image/svg+xml</dc:format><dc:type
           rdf:resource="http://purl.org/dc/dcmitype/StillImage" /></cc:Work></rdf:RDF></metadata><defs
     id="defs95" /><sodipodi:namedview
     pagecolor="#ffffff"
     bordercolor="#666666"
     borderopacity="1"
     objecttolerance="10"
     gridtolerance="10"
     guidetolerance="10"
     inkscape:pageopacity="0"
     inkscape:pageshadow="2"
     inkscape:window-width="1920"
     inkscape:window-height="1023"
     id="namedview93"
     showgrid="false"
     inkscape:zoom="0.65186406"
     inkscape:cx="243.82706"
     inkscape:cy="-49.791001"
     inkscape:window-x="0"
     inkscape:window-y="28"
     inkscape:window-maximized="1"
     inkscape:current-layer="Capa_1" /><g
     id="g6"
     style="fill:#666666"><g
       id="g4"
       style="fill:#666666"><path
         d="M255.212,272c-41.353,0-75,33.647-75,75c0,41.353,33.647,75,75,75c41.353,0,75-33.647,75-75    C330.212,305.647,296.564,272,255.212,272z M255.212,392c-24.814,0-45-20.186-45-45c0-24.814,20.186-45,45-45    c24.814,0,45,20.186,45,45C300.212,371.814,280.026,392,255.212,392z"
         id="path2"
         style="fill:#666666" /></g></g><g
     id="g12"
     style="fill:#666666"><g
       id="g10"
       style="fill:#666666"><path
         d="M255.212,332c-8.276,0-15,6.724-15,15s6.724,15,15,15s15-6.724,15-15S263.488,332,255.212,332z"
         id="path8"
         style="fill:#666666" /></g></g><path
     d="M 255.21289 92 C 240.64077 92 227.67056 98.966184 219.44141 109.73828 L 241.38867 131.16406 C 243.66492 125.77798 248.99836 122 255.21289 122 C 263.49689 122 270.21289 128.714 270.21289 137 C 270.21289 143.08707 266.57905 148.31457 261.36914 150.66602 L 283.32617 172.09961 C 293.61052 163.84565 300.21289 151.18313 300.21289 137 C 300.21289 112.186 280.02689 92 255.21289 92 z "
     id="path14"
     style="fill:#666666" /><path
     d="M 135.21289 0 C 127.15085 0 119.58266 2.1410772 113.03125 5.8691406 L 197.89453 88.707031 C 211.66356 72.391409 232.24396 62 255.21289 62 C 296.56589 62 330.21289 95.647 330.21289 137 C 330.21289 159.3194 320.3996 179.38166 304.875 193.13281 L 420.21289 305.7168 L 420.21289 45 C 420.21289 20.186 400.02689 0 375.21289 0 L 135.21289 0 z M 90.212891 56.708984 L 90.212891 467 C 90.212891 491.814 110.39889 512 135.21289 512 L 375.21289 512 C 400.02689 512 420.21289 491.814 420.21289 467 L 420.21289 378.83203 L 355.40234 315.56836 C 358.52448 325.49686 360.21289 336.05527 360.21289 347 C 360.21289 404.891 313.10289 452 255.21289 452 C 197.32189 452 150.21289 404.891 150.21289 347 C 150.21289 289.109 197.32189 242 255.21289 242 C 265.26846 242 274.99635 243.42389 284.21094 246.07617 L 249.01758 211.72266 C 213.19443 208.77677 184.42234 180.5623 180.64062 144.97852 L 90.212891 56.708984 z "
     id="path20"
     style="fill:#666666" /><g
     id="g62"
     style="fill:#666666" /><g
     id="g64"
     style="fill:#666666" /><g
     id="g66"
     style="fill:#666666" /><g
     id="g68"
     style="fill:#666666" /><g
     id="g70"
     style="fill:#666666" /><g
     id="g72"
     style="fill:#666666" /><g
     id="g74"
     style="fill:#666666" /><g
     id="g76"
     style="fill:#666666" /><g
     id="g78"
     style="fill:#666666" /><g
     id="g80"
     style="fill:#666666" /><g
     id="g82"
     style="fill:#666666" /><g
     id="g84"
     style="fill:#666666" /><g
     id="g86"
     style="fill:#666666" /><g
     id="g88"
     style="fill:#666666" /><g
     id="g90"
     style="fill:#666666" /><rect
     id="rect53"
     width="658.12469"
     height="53.131626"
     x="34.647812"
     y="-24.135736"
     transform="matrix(0.71558385,0.69852685,-0.6146867,0.78877136,0,0)"
     style="fill:#666666;stroke-width:1.66539216" /></svg>