<?xml version="1.0" encoding="UTF-8" standalone="no"?>
<!-- Generator: Adobe Illustrator 19.0.0, SVG Export Plug-In . SVG Version: 6.00 Build 0)  -->

<svg
   xmlns:dc="http://purl.org/dc/elements/1.1/"
   xmlns:cc="http://creativecommons.org/ns#"
   xmlns:rdf="http://www.w3.org/1999/02/22-rdf-syntax-ns#"
   xmlns:svg="http://www.w3.org/2000/svg"
   xmlns="http://www.w3.org/2000/svg"
   xmlns:sodipodi="http://sodipodi.sourceforge.net/DTD/sodipodi-0.dtd"
   xmlns:inkscape="http://www.inkscape.org/namespaces/inkscape"
   version="1.1"
   id="Capa_1"
   x="0px"
   y="0px"
   viewBox="0 0 480 480"
   style="enable-background:new 0 0 480 480;"
   xml:space="preserve"
   sodipodi:docname="noisy.svg"
   inkscape:version="0.92.2 (5c3e80d, 2017-08-06)"><metadata
     id="metadata43"><rdf:RDF><cc:Work
         rdf:about=""><dc:format>image/svg+xml</dc:format><dc:type
           rdf:resource="http://purl.org/dc/dcmitype/StillImage" /></cc:Work></rdf:RDF></metadata><defs
     id="defs41" /><sodipodi:namedview
     pagecolor="#ffffff"
     bordercolor="#666666"
     borderopacity="1"
     objecttolerance="10"
     gridtolerance="10"
     guidetolerance="10"
     inkscape:pageopacity="0"
     inkscape:pageshadow="2"
     inkscape:window-width="640"
     inkscape:window-height="480"
     id="namedview39"
     showgrid="false"
     inkscape:zoom="0.34766083"
     inkscape:cx="12.923502"
     inkscape:cy="288.08635"
     inkscape:window-x="211"
     inkscape:window-y="180"
     inkscape:window-maximized="0"
     inkscape:current-layer="Capa_1" /><path
     d="M278.944,17.577c-5.568-2.656-12.128-1.952-16.928,1.92L106.368,144.009H32c-17.632,0-32,14.368-32,32v128  c0,17.664,14.368,32,32,32h74.368l155.616,124.512c2.912,2.304,6.464,3.488,10.016,3.488c2.368,0,4.736-0.544,6.944-1.6  c5.536-2.656,9.056-8.256,9.056-14.4v-416C288,25.865,284.48,20.265,278.944,17.577z"
     id="path2"
     style="fill:#ffffff" /><path
     d="M368.992,126.857c-6.304-6.208-16.416-6.112-22.624,0.128c-6.208,6.304-6.144,16.416,0.128,22.656  C370.688,173.513,384,205.609,384,240.009s-13.312,66.496-37.504,90.368c-6.272,6.176-6.336,16.32-0.128,22.624  c3.136,3.168,7.264,4.736,11.36,4.736c4.064,0,8.128-1.536,11.264-4.64C399.328,323.241,416,283.049,416,240.009  S399.328,156.777,368.992,126.857z"
     id="path4"
     style="fill:#ffffff" /><path
     d="M414.144,81.769c-6.304-6.24-16.416-6.176-22.656,0.096c-6.208,6.272-6.144,16.416,0.096,22.624  C427.968,140.553,448,188.681,448,240.009s-20.032,99.424-56.416,135.488c-6.24,6.24-6.304,16.384-0.096,22.656  c3.168,3.136,7.264,4.704,11.36,4.704c4.064,0,8.16-1.536,11.296-4.64C456.64,356.137,480,299.945,480,240.009  S456.64,123.881,414.144,81.769z"
     id="path6"
     style="fill:#ffffff" /><g
     id="g8" /><g
     id="g10" /><g
     id="g12" /><g
     id="g14" /><g
     id="g16" /><g
     id="g18" /><g
     id="g20" /><g
     id="g22" /><g
     id="g24" /><g
     id="g26" /><g
     id="g28" /><g
     id="g30" /><g
     id="g32" /><g
     id="g34" /><g
     id="g36" /></svg>