<?xml version="1.0" encoding="UTF-8" standalone="no"?>
<!-- Generator: Adobe Illustrator 19.0.0, SVG Export Plug-In . SVG Version: 6.00 Build 0)  -->

<svg
   xmlns:dc="http://purl.org/dc/elements/1.1/"
   xmlns:cc="http://creativecommons.org/ns#"
   xmlns:rdf="http://www.w3.org/1999/02/22-rdf-syntax-ns#"
   xmlns:svg="http://www.w3.org/2000/svg"
   xmlns="http://www.w3.org/2000/svg"
   xmlns:sodipodi="http://sodipodi.sourceforge.net/DTD/sodipodi-0.dtd"
   xmlns:inkscape="http://www.inkscape.org/namespaces/inkscape"
   version="1.1"
   id="Capa_1"
   x="0px"
   y="0px"
   viewBox="0 0 512 512"
   style="enable-background:new 0 0 512 512;"
   xml:space="preserve"
   sodipodi:docname="noisy.svg"
   inkscape:version="0.92.2 (5c3e80d, 2017-08-06)"><metadata
     id="metadata97"><rdf:RDF><cc:Work
         rdf:about=""><dc:format>image/svg+xml</dc:format><dc:type
           rdf:resource="http://purl.org/dc/dcmitype/StillImage" /></cc:Work></rdf:RDF></metadata><defs
     id="defs95" /><sodipodi:namedview
     pagecolor="#ffffff"
     bordercolor="#666666"
     borderopacity="1"
     objecttolerance="10"
     gridtolerance="10"
     guidetolerance="10"
     inkscape:pageopacity="0"
     inkscape:pageshadow="2"
     inkscape:window-width="640"
     inkscape:window-height="480"
     id="namedview93"
     showgrid="false"
     inkscape:zoom="0.4609375"
     inkscape:cx="256"
     inkscape:cy="256"
     inkscape:window-x="0"
     inkscape:window-y="28"
     inkscape:window-maximized="0"
     inkscape:current-layer="Capa_1" /><g
     id="g6"
     style="fill:#ffffff"><g
       id="g4"
       style="fill:#ffffff"><path
         d="M255.212,272c-41.353,0-75,33.647-75,75c0,41.353,33.647,75,75,75c41.353,0,75-33.647,75-75    C330.212,305.647,296.564,272,255.212,272z M255.212,392c-24.814,0-45-20.186-45-45c0-24.814,20.186-45,45-45    c24.814,0,45,20.186,45,45C300.212,371.814,280.026,392,255.212,392z"
         id="path2"
         style="fill:#ffffff" /></g></g><g
     id="g12"
     style="fill:#ffffff"><g
       id="g10"
       style="fill:#ffffff"><path
         d="M255.212,332c-8.276,0-15,6.724-15,15s6.724,15,15,15s15-6.724,15-15S263.488,332,255.212,332z"
         id="path8"
         style="fill:#ffffff" /></g></g><g
     id="g18"
     style="fill:#ffffff"><g
       id="g16"
       style="fill:#ffffff"><path
         d="M255.212,92c-24.814,0-45,20.186-45,45c0,24.814,20.185,45,45,45c24.814,0,45-20.186,45-45    C300.212,112.186,280.026,92,255.212,92z M255.212,152c-8.284,0-15-6.716-15-15c0-8.286,6.716-15,15-15c8.284,0,15,6.714,15,15    C270.212,145.284,263.496,152,255.212,152z"
         id="path14"
         style="fill:#ffffff" /></g></g><g
     id="g24"
     style="fill:#ffffff"><g
       id="g22"
       style="fill:#ffffff"><path
         d="M375.212,0h-240c-24.814,0-45,20.186-45,45v422c0,24.814,20.186,45,45,45h240c24.814,0,45-20.186,45-45V45    C420.212,20.186,400.026,0,375.212,0z M255.212,62c41.353,0,75,33.647,75,75c0,41.353-33.647,75-75,75c-41.353,0-75-33.647-75-75    C180.212,95.647,213.859,62,255.212,62z M255.212,452c-57.891,0-105-47.109-105-105s47.109-105,105-105s105,47.109,105,105    S313.102,452,255.212,452z"
         id="path20"
         style="fill:#ffffff" /></g></g><g
     id="g30"
     style="fill:#ffffff"><g
       id="g28"
       style="fill:#ffffff"><path
         d="M496.804,242h-30c-19.773,0-19.854,30,0,30h30C516.578,272,516.659,242,496.804,242z"
         id="path26"
         style="fill:#ffffff" /></g></g><g
     id="g36"
     style="fill:#ffffff"><g
       id="g34"
       style="fill:#ffffff"><path
         d="M486.199,156.394l-30,30c-14.003,14.004,7.208,35.215,21.211,21.211l30-30    C521.355,163.66,500.259,142.334,486.199,156.394z"
         id="path32"
         style="fill:#ffffff" /></g></g><g
     id="g42"
     style="fill:#ffffff"><g
       id="g40"
       style="fill:#ffffff"><path
         d="M507.41,336.395l-30-30c-13.945-13.945-35.271,7.151-21.211,21.211l30,30C500.202,371.609,521.413,350.398,507.41,336.395    z"
         id="path38"
         style="fill:#ffffff" /></g></g><g
     id="g48"
     style="fill:#ffffff"><g
       id="g46"
       style="fill:#ffffff"><path
         d="M45.212,242h-30c-19.773,0-19.854,30,0,30h30C64.985,272,65.066,242,45.212,242z"
         id="path44"
         style="fill:#ffffff" /></g></g><g
     id="g54"
     style="fill:#ffffff"><g
       id="g52"
       style="fill:#ffffff"><path
         d="M55.817,186.395l-30-30c-13.945-13.945-35.271,7.151-21.211,21.211l30,30C48.552,221.552,69.877,200.455,55.817,186.395z"
         id="path50"
         style="fill:#ffffff" /></g></g><g
     id="g60"
     style="fill:#ffffff"><g
       id="g58"
       style="fill:#ffffff"><path
         d="M34.606,306.395l-30,30c-14.003,14.003,7.208,35.214,21.211,21.211l30-30C69.762,313.66,48.666,292.335,34.606,306.395z"
         id="path56"
         style="fill:#ffffff" /></g></g><g
     id="g62"
     style="fill:#ffffff" /><g
     id="g64"
     style="fill:#ffffff" /><g
     id="g66"
     style="fill:#ffffff" /><g
     id="g68"
     style="fill:#ffffff" /><g
     id="g70"
     style="fill:#ffffff" /><g
     id="g72"
     style="fill:#ffffff" /><g
     id="g74"
     style="fill:#ffffff" /><g
     id="g76"
     style="fill:#ffffff" /><g
     id="g78"
     style="fill:#ffffff" /><g
     id="g80"
     style="fill:#ffffff" /><g
     id="g82"
     style="fill:#ffffff" /><g
     id="g84"
     style="fill:#ffffff" /><g
     id="g86"
     style="fill:#ffffff" /><g
     id="g88"
     style="fill:#ffffff" /><g
     id="g90"
     style="fill:#ffffff" /></svg>